<svg width="900" height="600" viewBox="0 0 900 600" fill="none" xmlns="http://www.w3.org/2000/svg">
  <defs>
    <linearGradient id="bg" x1="0" y1="0" x2="900" y2="600" gradientUnits="userSpaceOnUse">
      <stop offset="0" stop-color="#07111f"/>
      <stop offset="1" stop-color="#050810"/>
    </linearGradient>
    <linearGradient id="accent" x1="150" y1="120" x2="760" y2="500" gradientUnits="userSpaceOnUse">
      <stop offset="0" stop-color="#5eead4"/>
      <stop offset="1" stop-color="#22d3ee"/>
    </linearGradient>
  </defs>
  <rect width="900" height="600" rx="32" fill="url(#bg)"/>
  <circle cx="160" cy="142" r="84" fill="#22d3ee" opacity="0.09"/>
  <circle cx="734" cy="458" r="120" fill="#5eead4" opacity="0.07"/>
  <rect x="118" y="110" width="258" height="64" rx="18" fill="rgba(255,255,255,0.06)" stroke="rgba(94,234,212,0.32)"/>
  <text x="148" y="149" fill="#e8fdf8" font-family="Arial, Helvetica, sans-serif" font-size="30" font-weight="700">Face Recognition System</text>
  <rect x="156" y="214" width="300" height="266" rx="30" fill="rgba(255,255,255,0.04)" stroke="rgba(255,255,255,0.12)"/>
  <circle cx="306" cy="346" r="88" stroke="url(#accent)" stroke-width="10" opacity="0.92"/>
  <circle cx="276" cy="322" r="10" fill="#5eead4"/>
  <circle cx="336" cy="322" r="10" fill="#22d3ee"/>
  <path d="M284 366C298 384 314 384 328 366" stroke="#5eead4" stroke-width="8" stroke-linecap="round"/>
  <path d="M226 256L198 228" stroke="#22d3ee" stroke-width="10" stroke-linecap="round"/>
  <path d="M386 256L414 228" stroke="#22d3ee" stroke-width="10" stroke-linecap="round"/>
  <path d="M226 436L198 464" stroke="#22d3ee" stroke-width="10" stroke-linecap="round"/>
  <path d="M386 436L414 464" stroke="#22d3ee" stroke-width="10" stroke-linecap="round"/>
  <rect x="496" y="184" width="286" height="290" rx="30" fill="rgba(255,255,255,0.04)" stroke="rgba(255,255,255,0.12)"/>
  <path d="M534 274H746" stroke="#5eead4" stroke-width="12" stroke-linecap="round"/>
  <path d="M534 322H706" stroke="#22d3ee" stroke-width="12" stroke-linecap="round"/>
  <path d="M534 370H676" stroke="#5eead4" stroke-width="12" stroke-linecap="round"/>
  <text x="532" y="232" fill="#9ddbd2" font-family="Arial, Helvetica, sans-serif" font-size="18">Real-time identity matching</text>
</svg>
