<svg width="900" height="600" viewBox="0 0 900 600" fill="none" xmlns="http://www.w3.org/2000/svg">
  <defs>
    <linearGradient id="bg" x1="0" y1="0" x2="900" y2="600" gradientUnits="userSpaceOnUse">
      <stop offset="0" stop-color="#07111f"/>
      <stop offset="0.55" stop-color="#0b1728"/>
      <stop offset="1" stop-color="#050810"/>
    </linearGradient>
    <linearGradient id="accent" x1="180" y1="120" x2="720" y2="480" gradientUnits="userSpaceOnUse">
      <stop offset="0" stop-color="#5eead4"/>
      <stop offset="1" stop-color="#22d3ee"/>
    </linearGradient>
    <filter id="glow" x="-30%" y="-30%" width="160%" height="160%">
      <feGaussianBlur stdDeviation="18" result="blur"/>
      <feColorMatrix in="blur" type="matrix" values="0 0 0 0 0.23  0 0 0 0 0.92  0 0 0 0 0.84  0 0 0 0.95 0" result="colored"/>
      <feMerge>
        <feMergeNode in="colored"/>
        <feMergeNode in="SourceGraphic"/>
      </feMerge>
    </filter>
  </defs>
  <rect width="900" height="600" rx="32" fill="url(#bg)"/>
  <circle cx="160" cy="130" r="96" fill="#22d3ee" opacity="0.12" filter="url(#glow)"/>
  <circle cx="748" cy="470" r="130" fill="#5eead4" opacity="0.08" filter="url(#glow)"/>
  <path d="M94 126H806" stroke="rgba(255,255,255,0.08)" stroke-width="2"/>
  <path d="M94 480H806" stroke="rgba(255,255,255,0.08)" stroke-width="2"/>
  <path d="M190 420C250 354 323 320 417 320C509 320 595 350 708 450" stroke="url(#accent)" stroke-width="10" stroke-linecap="round" opacity="0.9"/>
  <circle cx="190" cy="420" r="16" fill="#5eead4"/>
  <circle cx="417" cy="320" r="16" fill="#22d3ee"/>
  <circle cx="708" cy="450" r="16" fill="#5eead4"/>
  <rect x="108" y="88" width="236" height="64" rx="18" fill="rgba(255,255,255,0.06)" stroke="rgba(94,234,212,0.32)"/>
  <text x="136" y="130" fill="#e8fdf8" font-family="Arial, Helvetica, sans-serif" font-size="34" font-weight="700">NeoCare AI</text>
  <rect x="128" y="210" width="178" height="134" rx="22" fill="rgba(255,255,255,0.05)" stroke="rgba(255,255,255,0.12)"/>
  <rect x="344" y="182" width="214" height="190" rx="26" fill="rgba(255,255,255,0.04)" stroke="rgba(255,255,255,0.12)"/>
  <rect x="606" y="240" width="152" height="126" rx="22" fill="rgba(255,255,255,0.05)" stroke="rgba(255,255,255,0.12)"/>
  <path d="M166 298H274" stroke="#5eead4" stroke-width="12" stroke-linecap="round"/>
  <path d="M370 298H532" stroke="#22d3ee" stroke-width="12" stroke-linecap="round"/>
  <path d="M640 304H724" stroke="#5eead4" stroke-width="12" stroke-linecap="round"/>
  <text x="138" y="368" fill="#9ddbd2" font-family="Arial, Helvetica, sans-serif" font-size="18">Neonatal signals</text>
  <text x="372" y="402" fill="#9ddbd2" font-family="Arial, Helvetica, sans-serif" font-size="18">AI risk scoring</text>
  <text x="622" y="402" fill="#9ddbd2" font-family="Arial, Helvetica, sans-serif" font-size="18">Live monitoring</text>
</svg>
