<svg width="512" height="512" viewBox="0 0 512 512" fill="none" xmlns="http://www.w3.org/2000/svg">
  <rect width="512" height="512" rx="96" fill="#111827"/>
  <path d="M156 162C156 131.072 181.072 106 212 106H300C330.928 106 356 131.072 356 162V252H214C181.909 252 156 277.909 156 310V350C156 380.928 181.072 406 212 406H300C330.928 406 356 380.928 356 350V294" stroke="#60A5FA" stroke-width="18" stroke-linecap="round"/>
  <path d="M356 350C356 380.928 330.928 406 300 406H212C181.072 406 156 380.928 156 350V260H298C330.091 260 356 234.091 356 202V162C356 131.072 330.928 106 300 106" stroke="#FBBF24" stroke-width="18" stroke-linecap="round"/>
  <circle cx="216" cy="170" r="14" fill="#E2E8F0"/>
  <circle cx="304" cy="342" r="14" fill="#E2E8F0"/>
  <text x="256" y="470" fill="#F8FAFC" font-family="Arial, Helvetica, sans-serif" font-size="42" font-weight="700" text-anchor="middle">Python</text>
</svg>